<?xml version="1.0" encoding="iso-8859-1"?>
<!-- Generator: Adobe Illustrator 19.0.0, SVG Export Plug-In . SVG Version: 6.00 Build 0)  -->
<svg version="1.1" id="Capa_1" xmlns="http://www.w3.org/2000/svg" xmlns:xlink="http://www.w3.org/1999/xlink" x="0px" y="0px"
	 viewBox="0 0 512.001 512.001" style="enable-background:new 0 0 512.001 512.001;" xml:space="preserve">
<path style="fill:#F9C795;" d="M193.34,418.381v0.003c0.075,0.072,9.445,9.352,9.445,9.352c4.939,4.892,5.836,13.158,5.923,23.07
	h-0.002c0,9.625-2.151,23.784,13.786,23.784c7.909,0,62.74,0,71.992,0c4.614-0.521,11.608-3.169,11.608-14.463
	c0-0.002-0.008-16.84-0.008-16.853c-0.014-21.508,21.287-19.542,21.262-46.29l-0.046-62.644h0.046v-49.703
	c0-8.204-6.65-14.855-14.853-14.855c-8.207,0-14.859,6.652-14.859,14.855v-27.047c0-8.213-6.656-14.87-14.869-14.87
	c-8.213,0-14.869,6.658-14.869,14.87v-11.242c0-8.212-6.656-14.87-14.869-14.87c-8.214,0-14.871,6.659-14.871,14.87v20.682
	l-0.006-9.475c-0.006-8.2-6.661-14.841-14.859-14.836c-8.201,0.007-14.799,6.66-14.793,14.858v101.892l-28.202-37.022
	c-12.275-17.184-34.207-2.154-26.966,13.555l29.255,66.948C182.633,403.058,186.816,411.921,193.34,418.381z"/>
<g>
	<path style="fill:#E8AD7C;" d="M228.566,461.548c0.054-8.663,0.046-5.171,0.046-10.742h0.002
		c-0.087-9.912-0.984-18.178-5.923-23.07c0,0-9.37-9.28-9.445-9.352v-0.003c-9.157-9.068-9.893-13.454-40.012-82.38
		c-3.094-6.713-0.853-13.293,3.677-17.297c-12.473-10.819-30.199,2.947-23.584,17.297l29.255,66.948
		c0.05,0.109,4.233,8.972,10.757,15.432v0.003c0.075,0.072,9.445,9.352,9.445,9.352c4.939,4.892,5.836,13.158,5.923,23.07h-0.002
		c0,5.563,0.007,2.152-0.046,10.742c0.147,3.645,1.703,13.042,13.832,13.042h19.907C230.27,474.59,228.713,465.193,228.566,461.548z
		"/>
	<path style="fill:#E8AD7C;" d="M313.115,269.812c-8.702-0.337-15.482,6.577-15.482,14.824v61.588c0,4.276,3.466,7.741,7.741,7.741
		s7.741-3.465,7.741-7.741V269.812z"/>
	<path style="fill:#E8AD7C;" d="M224.214,242.765c-0.307-0.019-0.613-0.046-0.925-0.046c-7.318,0.006-13.345,5.309-14.557,12.275
		V357.32c0,4.276,3.466,7.741,7.741,7.741s7.741-3.465,7.741-7.741L224.214,242.765L224.214,242.765z"/>
	<path style="fill:#E8AD7C;" d="M267.894,257.589v88.635c0,4.276,3.466,7.741,7.741,7.741s7.741-3.465,7.741-7.741V242.749
		C274.86,242.372,267.894,249.202,267.894,257.589z"/>
	<path style="fill:#E8AD7C;" d="M245.889,353.965c4.275,0,7.741-3.465,7.741-7.741V231.507c-8.623-0.343-15.476,6.534-15.476,14.84
		v20.682l-0.006-9.475v88.669C238.148,350.5,241.614,353.965,245.889,353.965z"/>
</g>
<path style="fill:#F0A479;" d="M475.573,158.978l0.002-0.002c4.034-15.971,3.193-19.387,20.395-29.519l0.001,0.001
	c4.733-2.732,1.75-1.02,9.326-5.33c3.083-1.95,10.443-7.996,4.379-18.5c-3.945-6.833-32.609-56.479-35.996-62.348
	c-2.759-3.736-8.548-8.468-18.33-2.82c0,0-14.585,8.43-14.591,8.434c-8.045,4.652-16.176,3.12-16.238,3.109
	c-28.065-6.267-18.146-7.825-88.709,32.985l-0.023-0.04L292.743,109.8c-7.104,4.101-9.539,13.187-5.438,20.291
	c4.103,7.107,13.19,9.542,20.294,5.44l-23.424,13.524c-7.112,4.106-9.549,13.2-5.443,20.313c4.106,7.112,13.2,9.548,20.312,5.442
	l-9.736,5.62c-7.111,4.106-9.549,13.2-5.443,20.312c4.106,7.114,13.202,9.549,20.313,5.444l17.911-10.342l-8.202,4.742
	c-7.099,4.105-9.523,13.189-5.42,20.287c4.107,7.098,13.167,9.486,20.265,5.381l88.24-50.946l-17.961,42.935
	c-8.744,19.222,15.238,30.7,25.222,16.575C468.86,174.282,472.297,171.441,475.573,158.978z"/>
<g>
	<path style="fill:#EA976E;" d="M495.342,106.888c-2.388,1.359-4.688,2.665-6.045,3.436l-3.281,1.894l-0.001-0.001
		c-17.202,10.132-16.342,13.521-20.395,29.519l-0.002,0.002c-3.276,12.465-6.706,15.295-51.337,75.84
		c-4.267,6.037-11.085,7.386-16.819,5.465c-3.134,16.212,17.651,24.679,26.772,11.775c44.624-60.536,48.061-63.376,51.337-75.84
		l0.002-0.002c4.034-15.971,3.193-19.387,20.395-29.519l0.001,0.001c4.733-2.732,1.75-1.02,9.326-5.33
		c3.083-1.95,10.443-7.996,4.379-18.5l-9.954-17.24C505.786,98.892,498.426,104.938,495.342,106.888z"/>
	<path style="fill:#EA976E;" d="M287.02,129.535c4.155,7.84,13.56,10.049,20.579,5.995l53.337-30.794
		c3.703-2.138,4.971-6.871,2.833-10.575c-2.138-3.702-6.871-4.971-10.575-2.833L287.02,129.535z"/>
	<path style="fill:#EA976E;" d="M308.047,220.049c3.492,7.009,11.482,9.804,18.332,7.294l88.617-51.164
		c3.703-2.138,4.971-6.871,2.833-10.574c-2.138-3.702-6.871-4.971-10.574-2.833L308.047,220.049z"/>
	<path style="fill:#EA976E;" d="M299.045,174.809l76.76-44.318c3.703-2.138,4.971-6.872,2.833-10.574
		c-2.138-3.703-6.871-4.971-10.574-2.833l-89.611,51.737C282.425,176.424,291.817,178.982,299.045,174.809z"/>
	<path style="fill:#EA976E;" d="M393.512,145.676c-2.138-3.702-6.872-4.971-10.575-2.833l-99.348,57.358
		c3.975,7.6,13.363,10.155,20.589,5.983l17.911-10.342l-8.202,4.742l76.79-44.335C394.381,154.114,395.65,149.38,393.512,145.676z"
		/>
	<path style="fill:#EA976E;" d="M100.681,47.61l-0.002-0.001c-15.849,4.491-18.382,6.93-35.762-2.903l0.001-0.002
		c-4.617-2.665-1.898-1.086-9.279-5.411c-3.23-1.695-12.147-5.046-18.211,5.458c-3.898,6.752-32.707,56.652-35.997,62.347
		c-8.747,20.068,25.195,18.719,32.132,38.212c8.606,27.437,2.296,19.627,72.921,60.332l-0.024,0.04l43.045,24.851
		c7.103,4.101,16.19,1.668,20.291-5.436c4.103-7.107,1.669-16.194-5.436-20.295l23.424,13.524c7.112,4.106,16.206,1.67,20.313-5.443
		c4.106-7.112,1.669-16.206-5.443-20.312l9.735,5.621c7.112,4.105,16.207,1.67,20.312-5.442c4.108-7.113,1.669-16.208-5.442-20.314
		l-17.911-10.341l8.208,4.731c7.105,4.095,16.184,1.653,20.279-5.449c4.093-7.106,1.632-16.146-5.472-20.242l-88.24-50.945
		l46.162-5.913c21.019-2.039,18.969-28.546,1.744-30.131l-72.606-8.138C119.305,46,109.538,45.19,100.681,47.61z"/>
</g>
<g>
	<path style="fill:#DB835D;" d="M45.685,56.533c7.371,4.318,4.678,2.754,9.279,5.411l-0.001,0.002
		c17.308,9.792,19.826,7.421,35.762,2.903l0.002,0.001c12.432-3.395,16.606-1.839,91.349,6.539
		c7.361,0.677,11.939,5.908,13.142,11.833c15.607-5.393,12.547-27.626-3.188-29.073l-72.606-8.138
		c-0.119-0.01-9.886-0.82-18.743,1.6l-0.002-0.001c-15.849,4.491-18.382,6.93-35.762-2.903l0.001-0.002
		c-4.617-2.665-1.898-1.086-9.279-5.411c-3.23-1.695-12.147-5.046-18.211,5.458l-9.953,17.24
		C33.539,51.487,42.455,54.838,45.685,56.533z"/>
	<path style="fill:#DB835D;" d="M169.458,225.622c4.66-7.411,2.013-16.715-5.097-20.819l-53.337-30.795
		c-3.703-2.137-8.437-0.869-10.574,2.834c-2.137,3.702-0.87,8.436,2.833,10.574L169.458,225.622z"/>
	<path style="fill:#DB835D;" d="M237.333,162.156c4.328-6.568,2.737-14.857-2.849-19.523l-88.617-51.162
		c-3.703-2.139-8.437-0.87-10.574,2.832c-2.138,3.703-0.87,8.437,2.833,10.575L237.333,162.156z"/>
	<path style="fill:#DB835D;" d="M202.656,192.571l-76.76-44.318c-3.703-2.138-8.438-0.869-10.574,2.833
		c-2.139,3.703-0.87,8.437,2.833,10.574l89.611,51.737C212.37,206.124,209.868,196.734,202.656,192.571z"/>
	<path style="fill:#DB835D;" d="M130.193,125.326c-2.138,3.703-0.869,8.438,2.833,10.575l99.348,57.358
		c4.624-7.281,2.068-16.676-5.113-20.823l-17.911-10.341l8.208,4.731l-76.79-44.334
		C137.064,120.354,132.331,121.623,130.193,125.326z"/>
</g>
<g>
</g>
<g>
</g>
<g>
</g>
<g>
</g>
<g>
</g>
<g>
</g>
<g>
</g>
<g>
</g>
<g>
</g>
<g>
</g>
<g>
</g>
<g>
</g>
<g>
</g>
<g>
</g>
<g>
</g>
</svg>
