<?xml version="1.0" encoding="iso-8859-1"?>
<!-- Generator: Adobe Illustrator 19.0.0, SVG Export Plug-In . SVG Version: 6.00 Build 0)  -->
<svg version="1.1" id="Capa_1" xmlns="http://www.w3.org/2000/svg" xmlns:xlink="http://www.w3.org/1999/xlink" x="0px" y="0px"
	 viewBox="0 0 511.999 511.999" style="enable-background:new 0 0 511.999 511.999;" xml:space="preserve">
<rect x="145.272" y="392.611" style="fill:#F0A479;" width="131.576" height="96.382"/>
<path style="fill:#4BA7E0;" d="M0.514,361.913c0,5.219,0,124.081,0,131.006c0,6.814,5.524,12.338,12.338,12.338
	c3.598,0,116.354,0,124.383,0c6.814,0,12.338-5.524,12.338-12.338v-69.562v-61.443H0.514z"/>
<path style="fill:#4B87DD;" d="M21.078,492.918v-34.902v-96.104H0.514c0,5.219,0,124.081,0,131.006
	c0,6.814,5.524,12.338,12.338,12.338h20.563C26.601,505.257,21.078,499.732,21.078,492.918z"/>
<path style="fill:#EA976E;" d="M173.861,406.849c-29.985-68.62-30.737-73.032-39.858-82.063v-0.004
	c-0.074-0.07-9.407-9.316-9.407-9.316c-3.932-3.894-5.29-9.938-5.721-17.248c0-5.025,0-144.045,0-155.538H22.49
	c0,3.39,0,132.259,0,140.545c0,18.809,1.234,23.4-6.204,32.321c-19.383,21.086-15.788,11.76-15.728,92.957H0.514v49.513
	c0,8.172,6.625,14.798,14.796,14.798c8.176,0,14.802-6.627,14.802-14.798v26.944c0,8.182,6.631,14.812,14.812,14.812
	c8.182,0,14.812-6.631,14.812-14.812v11.198c0,8.182,6.631,14.814,14.812,14.814c8.183,0,14.814-6.633,14.814-14.814v-20.601
	l0.006,9.438c0.006,8.168,6.634,14.784,14.802,14.778c8.169-0.006,14.742-6.633,14.736-14.8v-88.676
	c0-12.216,5.963-4.976,6.848-3.835l21.243,27.89C159.226,437.469,181.075,422.496,173.861,406.849z"/>
<path style="fill:#DB835D;" d="M20.623,458.017v-49.513h0.046c-0.061-82.013-3.277-72.284,15.728-92.957
	c0.04-0.048,6.209-6.3,6.203-15.557v-16.764c0-0.01,0-0.034,0-0.024c0,2.926,0-133.856,0-140.521H22.49c0,3.39,0,132.259,0,140.545
	c0,18.809,1.234,23.4-6.204,32.321c-19.383,21.086-15.788,11.76-15.728,92.957H0.514v49.513c0,12.922,15.428,19.584,24.853,10.835
	C22.456,466.15,20.623,462.301,20.623,458.017z"/>
<path style="fill:#149334;" d="M18.566,0C11.753,0,6.229,5.524,6.229,12.338c0,81.564,0,41.793,0,124.383
	c0,6.814,5.524,12.338,12.338,12.338c13.731,0,110.206,0,122.247,0V0C134.01,0,25.552,0,18.566,0z"/>
<path style="fill:#0E7F26;" d="M26.793,136.721c0-5.341,0-119.224,0-124.383C26.793,5.524,32.317,0,39.131,0H18.566
	C11.753,0,6.229,5.524,6.229,12.338c0,81.564,0,41.793,0,124.383c0,6.814,5.524,12.338,12.338,12.338h20.564
	C32.317,149.059,26.793,143.535,26.793,136.721z"/>
<path style="fill:#D8825D;" d="M362.426,21.978c-8.137,0-144.351,0-150.929,0c-9.258,0.006-15.509-6.163-15.557-6.203l-10.275-9.444
	c-2.882-2.323-9.429-6.341-20.28-6.331l-62.403,0.046V0H53.469c-8.172,0-14.798,6.625-14.798,14.796
	c0,8.176,6.626,14.802,14.798,14.802H26.525c-8.182,0-14.813,6.631-14.813,14.812c0,8.182,6.632,14.812,14.813,14.812H15.327
	c-8.18,0-14.813,6.631-14.813,14.812c0,8.183,6.633,14.814,14.813,14.814H35.93l-9.438,0.006
	c-8.168,0.006-14.784,6.635-14.779,14.802c0.007,8.169,6.634,14.742,14.801,14.736h101.501l-36.879,28.092
	c-17.118,12.228-2.146,34.076,13.503,26.863c68.663-30.004,73.031-30.737,82.064-39.857h0.003c0.071-0.074,9.316-9.408,9.316-9.408
	c3.894-3.932,9.939-5.29,17.248-5.721c9.447,0,147.382,0,152.718,0V21.978H362.426z"/>
<g>
	<path style="fill:#CE7657;" d="M207.097,97.581c-7.308,0.432-13.354,1.789-17.248,5.721c0,0-9.244,9.334-9.316,9.408h-0.003
		c-9.032,9.121-13.395,9.851-82.063,39.857c-4.618,2.129-9.17,1.714-12.862-0.225c-7.183,12.137,5.668,27.165,19.031,21.006
		c68.663-30.004,73.031-30.737,82.063-39.857h0.003c0.071-0.074,9.316-9.408,9.316-9.408c3.894-3.932,9.941-5.29,17.248-5.721
		c8.495,0,155.172,0,160.283,0V97.581h-29.19H207.097z"/>
	<path style="fill:#CE7657;" d="M119.961,88.919c5.747,0,10.406-4.659,10.406-10.406c0-5.747-4.659-10.406-10.406-10.406H1.757
		c-0.794,1.816-1.243,3.819-1.243,5.929c0,8.183,6.633,14.814,14.813,14.814H35.93c-10.439,0.007-9.654-0.017-10.682,0.07H119.961z"
		/>
	<path style="fill:#CE7657;" d="M53.469,29.598c-30.929,0-26.462-0.012-27.52,0.029h94.012c5.747,0,10.406-4.659,10.406-10.406
		s-4.659-10.406-10.406-10.406H39.941C35.602,18.608,42.805,29.598,53.469,29.598z"/>
	<path style="fill:#CE7657;" d="M130.368,107.986c0-5.747-4.659-10.406-10.406-10.406H13.024
		c-4.417,9.801,2.766,20.821,13.489,20.813c10.499,0,84.01,0,93.448,0C125.708,118.393,130.368,113.734,130.368,107.986z"/>
	<path style="fill:#CE7657;" d="M12.859,59.445h107.102c5.747,0,10.406-4.659,10.406-10.406s-4.659-10.406-10.406-10.406H12.882
		c-4.124,9.725,3.015,20.591,13.643,20.591C14.138,59.223,14.573,59.157,12.859,59.445z"/>
</g>
<path style="fill:#FFA92C;" d="M499.146,5.715h-10.81h-39.214h-23.346h-51.013c-6.814,0-12.338,5.524-12.338,12.338v3.924v65.638
	v44.5h149.059c0-10.904,0-103.939,0-114.062C511.485,11.24,505.961,5.715,499.146,5.715z"/>
<path style="fill:#EF8F11;" d="M383.471,21.978v-3.924c0-6.814,5.524-12.338,12.338-12.338h-21.046
	c-6.814,0-12.338,5.524-12.338,12.338v3.924v65.638v44.5h21.046v-44.5V21.978z"/>
<path style="fill:#EA976E;" d="M511.485,52.955c0-8.173-6.625-14.798-14.796-14.798c-8.175,0-14.802,6.626-14.802,14.798V26.012
	c0-8.182-6.631-14.813-14.812-14.813c-8.182,0-14.812,6.632-14.812,14.813V14.813C452.262,6.633,445.631,0,437.45,0
	c-8.183,0-14.814,6.633-14.814,14.813v20.603l-0.006-9.438c-0.006-8.168-6.635-14.784-14.802-14.779
	c-8.169,0.007-14.742,6.634-14.736,14.801V127.5L365,90.621c-12.228-17.118-34.076-2.146-26.863,13.503
	c30.004,68.663,30.737,73.032,39.857,82.063v0.003c0.074,0.071,9.408,9.316,9.408,9.316c3.932,3.894,5.29,9.94,5.721,17.248v131.093
	v29.19h96.384c0-4.222,0-156.061,0-160.283c0-6.67,1.142-11.256,6.204-17.326c19.385-21.091,15.788-11.769,15.728-92.959h0.046
	L511.485,52.955L511.485,52.955z"/>
<path style="fill:#F9C795;" d="M511.485,52.955c0-8.173-6.625-14.798-14.796-14.798c-8.175,0-14.802,6.626-14.802,14.798V26.012
	c0-8.182-6.631-14.813-14.812-14.813c-8.182,0-14.812,6.632-14.812,14.813V14.813C452.262,6.633,445.631,0,437.45,0
	c-8.183,0-14.814,6.633-14.814,14.813v20.603l-0.006-9.438c-0.006-8.168-6.635-14.784-14.802-14.779
	c-8.169,0.007-14.742,6.634-14.736,14.801v85.835c0,11.653-7.106,6.337-7.106,6.337v0.001L365,90.621
	c-12.228-17.118-34.076-2.146-26.863,13.503c30.004,68.663,30.737,73.032,39.857,82.063v0.003c0.074,0.071,9.408,9.316,9.408,9.316
	c3.932,3.894,5.29,9.94,5.721,17.248v131.093v29.19h96.384c0-4.222,0-156.061,0-160.283c0-6.67,1.142-11.256,6.204-17.326
	c19.385-21.091,15.788-11.769,15.728-92.959h0.046L511.485,52.955L511.485,52.955z"/>
<path style="fill:#E8AD7C;" d="M413.904,206.584c-0.432-7.308-1.789-13.354-5.721-17.248c0,0-9.335-9.245-9.408-9.316v-0.003
	c-9.122-9.033-9.855-13.402-39.857-82.063c-2.129-4.617-1.714-9.17,0.225-12.862c-12.137-7.182-27.164,5.668-21.006,19.031
	c30.004,68.663,30.737,73.032,39.857,82.063v0.003c0.074,0.071,9.408,9.316,9.408,9.316c3.932,3.894,5.29,9.94,5.721,17.248v131.093
	v29.19h20.781v-29.19V206.584z"/>
<g>
	<path style="fill:#FF3E5A;" d="M489.851,238.36h-98.669c-4.259,0-7.711-3.452-7.711-7.711s3.452-7.711,7.711-7.711h98.669
		c4.259,0,7.711,3.452,7.711,7.711S494.11,238.36,489.851,238.36z"/>
	<path style="fill:#FF3E5A;" d="M493.431,361.913H477.54h-53.672h-39.884v149.059c11.52,0,97.487,0,109.447,0
		c6.814,0,12.338-5.524,12.338-12.338v-4.832c0-4.86,0-115.2,0-119.551C505.77,367.437,500.245,361.913,493.431,361.913z"/>
</g>
<rect x="383.989" y="361.912" style="fill:#D82749;" width="36.982" height="149.058"/>
<path style="fill:#F0A479;" d="M511.485,436.937c0-8.184-6.633-14.814-14.813-14.814h-20.603l9.438-0.006
	c8.169-0.006,14.784-6.635,14.779-14.802c-0.007-8.169-6.634-14.742-14.801-14.736h-83.002c-15.937,0-5.868-9.621-5.868-9.621l0,0
	l24.249-18.471c17.118-12.228,2.146-34.076-13.503-26.863l-66.691,29.142c-0.109,0.05-8.937,4.217-15.372,10.715h-0.003
	c-0.071,0.074-9.316,9.408-9.316,9.408c-3.894,3.932-9.939,5.29-17.248,5.721H167.641l6.222,14.238
	c6.731,14.601-11.84,28.602-24.288,16.507v65.638c3.244,0,130.982,0,134.165,0c27.052,0,23.751-1.673,42.595,15.648
	c2.882,2.322,9.429,6.34,20.28,6.33l62.404-0.046v0.046h49.512c8.172,0,14.798-6.625,14.798-14.796
	c0-8.176-6.626-14.802-14.798-14.802h26.944c8.182,0,14.813-6.631,14.813-14.812c0-8.182-6.632-14.812-14.813-14.812h11.199
	C504.852,451.749,511.485,445.118,511.485,436.937z"/>
<g>
	<path style="fill:#EA976E;" d="M458.53,490.862h-49.514v-0.046l-62.404,0.046c-26.234,0.024-26.234-21.99-46.111-21.978
		c-3.515,0-136.249,0-150.929,0v21.137c1.804,0,147.165,0,150.929,0c10.792-0.007,16.329,6.913,25.831,15.648
		c2.882,2.322,9.43,6.34,20.28,6.33l62.404-0.046v0.046h49.514c11.976,0,19.989-16.019,10.835-25.882
		C466.663,489.029,462.814,490.862,458.53,490.862z"/>
	<path style="fill:#EA976E;" d="M387.788,472.135c0,5.429,4.401,9.83,9.83,9.83h65.023c-1.307-0.378-2.683-0.591-4.111-0.591h26.944
		c9.859,0,17.049-9.501,14.185-19.069h-102.04C392.188,462.305,387.788,466.706,387.788,472.135z"/>
	<path style="fill:#EA976E;" d="M387.788,441.975c0,5.429,4.401,9.83,9.83,9.83h88.965c-0.368-0.027-0.735-0.056-1.11-0.056h11.198
		c10.09,0,17.315-9.918,14.007-19.605h-113.06C392.188,432.144,387.788,436.547,387.788,441.975z"/>
	<path style="fill:#EA976E;" d="M387.788,412.159c0,5.429,4.401,9.83,9.83,9.83h89.737c9.283-1.167,15.292-10.661,12.045-19.661
		H397.618C392.188,402.328,387.788,406.729,387.788,412.159z"/>
</g>
<path style="fill:#FFA92C;" d="M231.093,124.918c-4.259,0-7.711-3.452-7.711-7.711V21.243c0-4.259,3.452-7.711,7.711-7.711
	s7.711,3.452,7.711,7.711v95.963C238.804,121.465,235.352,124.918,231.093,124.918z"/>
<path style="fill:#149334;" d="M120.816,284.628H21.002c-4.259,0-7.711-3.452-7.711-7.711c0-4.26,3.452-7.711,7.711-7.711h99.814
	c4.259,0,7.711,3.452,7.711,7.711C128.528,281.177,125.075,284.628,120.816,284.628z"/>
<g>
	<path style="fill:#DB835D;" d="M39.35,387.274c-5.428,0-9.83,4.401-9.83,9.83v65.023c0.378-1.307,0.591-2.683,0.591-4.111v26.944
		c0,9.86,9.502,17.048,19.07,14.185v-102.04C49.18,391.675,44.78,387.274,39.35,387.274z"/>
	<path style="fill:#DB835D;" d="M69.511,387.274c-5.429,0-9.83,4.401-9.83,9.83v88.965c0.027-0.368,0.056-0.735,0.056-1.11v11.198
		c0,10.089,9.919,17.315,19.604,14.007v-113.06C79.341,391.675,74.939,387.274,69.511,387.274z"/>
	<path style="fill:#DB835D;" d="M99.327,387.274c-5.429,0-9.83,4.401-9.83,9.83v89.737c1.166,9.282,10.659,15.292,19.66,12.045
		V397.104C109.157,391.675,104.757,387.274,99.327,387.274z"/>
</g>
<path style="fill:#4BA7E0;" d="M284.558,496.433c-4.259,0-7.711-3.452-7.711-7.711v-98.052c0-4.26,3.452-7.711,7.711-7.711
	s7.711,3.452,7.711,7.711v98.052C292.27,492.98,288.817,496.433,284.558,496.433z"/>
<g>
	<path style="fill:#E8AD7C;" d="M422.566,119.447c0,5.747,4.659,10.406,10.406,10.406s10.406-4.659,10.406-10.406V1.243
		C441.562,0.448,439.56,0,437.45,0c-8.183,0-14.814,6.633-14.814,14.813v20.603l-0.006-9.438c0-0.421-0.029-0.833-0.064-1.244
		L422.566,119.447L422.566,119.447z"/>
	<path style="fill:#E8AD7C;" d="M481.887,52.955c0-30.894,0.012-26.472-0.029-27.52v94.012c0,5.747,4.659,10.406,10.406,10.406
		s10.406-4.659,10.406-10.406V39.427C492.877,35.089,481.887,42.291,481.887,52.955z"/>
	<path style="fill:#E8AD7C;" d="M403.498,129.854c5.747,0,10.406-4.659,10.406-10.406V12.51c-1.856-0.836-3.909-1.314-6.077-1.312
		c-8.169,0.007-14.742,6.634-14.736,14.801c0,10.499,0,84.01,0,93.448C393.092,125.195,397.751,129.854,403.498,129.854z"/>
	<path style="fill:#E8AD7C;" d="M452.04,12.345v107.102c0,5.747,4.659,10.406,10.406,10.406c5.747,0,10.406-4.659,10.406-10.406
		V12.368c-9.724-4.125-20.59,3.015-20.59,13.643V14.813C452.262,13.971,452.175,13.15,452.04,12.345z"/>
</g>
<g>
</g>
<g>
</g>
<g>
</g>
<g>
</g>
<g>
</g>
<g>
</g>
<g>
</g>
<g>
</g>
<g>
</g>
<g>
</g>
<g>
</g>
<g>
</g>
<g>
</g>
<g>
</g>
<g>
</g>
</svg>
